<svg xmlns="http://www.w3.org/2000/svg" xmlns:xlink="http://www.w3.org/1999/xlink" version="1.1" x="0px" y="0px" viewBox="0 0 55.68 83.69999999999999" enable-background="new 0 0 55.68 66.96" xml:space="preserve"><g><path fill-rule="evenodd" clip-rule="evenodd" d="M27.659,49.028c-2.973-0.33-4.011-3.086-4.16-5.546   c-0.519-8.599,7.327-15.029,12.825-18.369c5.381-5.725,2.871-15.921-4.159-18.022C24.74,4.87,14.747,9.625,18.647,17.835   c1.066,0.667,3.422,0.044,4.159,1.039c0.453,4.654-4.601,5.316-7.278,3.12c-3.463-7.376,0.154-14.367,5.546-17.33   c7.52-4.133,15.372-0.39,19.756,5.545c2.89,5.589,1.076,12.128-3.119,16.983c-2.429,2.81-6.652,4.246-8.666,6.932   C25.96,38.239,26.89,43.707,27.659,49.028z"/><path fill-rule="evenodd" clip-rule="evenodd" d="M23.846,63.931c-4.411-6.474,5.959-10.438,7.28-4.505   C31.935,63.065,28.203,64.805,23.846,63.931z"/></g><text x="0" y="81.96" fill="#000000" font-size="5px" font-weight="bold" font-family="'Helvetica Neue', Helvetica, Arial-Unicode, Arial, Sans-serif">Created by James Cottell</text><text x="0" y="86.96" fill="#000000" font-size="5px" font-weight="bold" font-family="'Helvetica Neue', Helvetica, Arial-Unicode, Arial, Sans-serif">from the Noun Project</text></svg>