<svg xmlns="http://www.w3.org/2000/svg" xmlns:xlink="http://www.w3.org/1999/xlink" version="1.1" x="0px" y="0px" viewBox="0 0 100 125" enable-background="new 0 0 100 100" xml:space="preserve"><g><path fill="#000000" d="M69.619,20.747c0,0,5.449-6.697,7.15-4.252S69.619,20.747,69.619,20.747z"/><path fill="#000000" d="M73.261,31.685c0,0,8.21-2.669,8.313,0.308C81.676,34.969,73.261,31.685,73.261,31.685z"/><path fill="#000000" d="M68.164,47.053c0,0,8.414,1.935,6.972,4.541C73.693,54.198,68.164,47.053,68.164,47.053z"/><path fill="#000000" d="M61.579,13.098c0,0,2.253-8.376,4.816-6.832C68.958,7.811,61.579,13.098,61.579,13.098z"/><path fill="#000000" d="M50.2,10.371c0,0-3.33-10.243,0.384-10.372C54.297-0.129,50.2,10.371,50.2,10.371z"/><path fill="#000000" d="M30.567,20.747c0,0-5.45-6.697-7.15-4.252C21.715,18.939,30.567,20.747,30.567,20.747z"/><path fill="#000000" d="M26.926,31.684c0,0-8.211-2.668-8.313,0.308S26.926,31.684,26.926,31.684z"/><path fill="#000000" d="M32.022,47.053c0,0-8.415,1.934-6.972,4.54S32.022,47.053,32.022,47.053z"/><path fill="#000000" d="M38.607,13.098c0,0-2.252-8.376-4.816-6.832C31.229,7.811,38.607,13.098,38.607,13.098z"/></g><g><path fill="#000000" d="M70.256,33.734c0-11.118-9.046-20.164-20.164-20.164c-11.118,0-20.163,9.045-20.163,20.164   c0,4.812,1.736,9.479,4.873,13.121c0.556,0.701,5.327,7.079,1.718,15.341c-0.014,0.028-0.026,0.057-0.038,0.088l-0.07,0.161   c-0.008,0.018-0.016,0.035-0.023,0.053c-0.195,0.27-0.299,0.562-0.299,0.876c0,0.027,0.005,0.055,0.008,0.081   c-0.01,0.077-0.019,0.153-0.019,0.229c0,0.522,0.216,1.024,0.599,1.499c-0.292,0.362-0.452,0.744-0.479,1.144   c-0.07,0.165-0.12,0.333-0.12,0.504c0,0.288,0.108,0.57,0.308,0.843c-0.131,0.265-0.2,0.538-0.2,0.818c0,0.001,0,0.001,0,0.002   c-0.067,0.161-0.107,0.324-0.107,0.49c0,0.319,0.13,0.63,0.372,0.929c-0.174,0.303-0.265,0.616-0.265,0.941   c0,0.04,0.007,0.08,0.01,0.12c-0.07,0.164-0.117,0.33-0.117,0.501c0,0.276,0.104,0.546,0.286,0.808   c-0.116,0.251-0.179,0.509-0.179,0.773c0,0.066,0.017,0.131,0.024,0.196c-0.083,0.178-0.131,0.36-0.131,0.545   c0,0.996,1.243,1.906,3.294,2.612h-0.004c0,0,0.01,0.003,0.013,0.003c0.347,0.12,0.71,0.234,1.1,0.341   c0.982,0.362,2.433,1.046,3.613,2.226c-0.001,0.015-0.008,0.029-0.008,0.044c0,0.612,1.089,1.149,2.733,1.459   c0.007,0.604,0.848,1.122,2.039,1.336v2.25c0,0.681,0.553,1.234,1.234,1.234c0.682,0,1.235-0.554,1.235-1.234v-2.25   c1.189-0.215,2.031-0.731,2.038-1.336c1.645-0.31,2.733-0.847,2.733-1.459c1.978-1.996,4.754-2.594,4.754-2.594l-0.091-0.002   c2.082-0.709,3.345-1.625,3.345-2.63c0-0.185-0.049-0.365-0.132-0.544c0.008-0.065,0.024-0.13,0.024-0.197   c0-0.265-0.062-0.522-0.179-0.773c0.184-0.262,0.286-0.531,0.286-0.808c0-0.171-0.046-0.337-0.116-0.501   c0.002-0.04,0.009-0.08,0.009-0.12c0-0.325-0.091-0.639-0.265-0.941c0.242-0.299,0.372-0.609,0.372-0.929   c0-0.166-0.041-0.329-0.107-0.49c0,0,0-0.001,0-0.002c0-0.28-0.068-0.554-0.2-0.818c0.199-0.272,0.308-0.555,0.308-0.843   c0-0.171-0.049-0.338-0.119-0.503c-0.027-0.399-0.187-0.782-0.479-1.145c0.382-0.475,0.599-0.977,0.599-1.499   c0-0.079-0.009-0.157-0.021-0.235c0.004-0.034,0.009-0.068,0.009-0.103c0-0.31-0.106-0.597-0.305-0.862   c-0.007-0.017-0.015-0.033-0.021-0.05l-0.069-0.159c-0.003-0.009-0.023-0.055-0.027-0.062c-3.625-8.278,1.154-14.658,1.697-15.34   C68.521,43.213,70.256,38.547,70.256,33.734z M50.015,59.863c-0.853,0-1.683,0.014-2.49,0.04   c1.798-4.654,3.165-10.602,1.344-15.644c0.258-0.219,0.51-0.446,0.754-0.681c1.135,1.443,2.63,2.283,4.358,2.436   c-0.328,4.067,0.058,9.082,1.502,14.055C53.802,59.931,51.955,59.863,50.015,59.863z M50.017,33.969   c0.253-0.287,0.533-0.426,0.874-0.426c0.15,0,0.312,0.027,0.488,0.08c0.326,0.1,1.317,0.399,0.996,2.315   c-0.241,1.444-1.162,3.244-2.464,4.883C48.81,38.178,49.028,35.092,50.017,33.969z M62.001,61.306   c-1.185-0.47-2.817-0.818-4.748-1.056c-1.558-5.043-1.968-10.21-1.63-14.266c4.118-0.416,6.037-2.95,6.069-5.271   c0.028-2.057-1.341-3.622-3.254-3.721c-0.621-0.026-1.549,0.196-2.412,1.465c-0.855,1.261-1.519,3.35-1.871,5.947   c-1.583-0.133-2.666-1.026-3.391-2.033c1.709-1.989,2.918-4.285,3.234-6.17c0.353-2.105-0.425-3.609-2.136-4.126   c-1.199-0.363-2.298-0.067-3.09,0.833c-1.603,1.822-1.677,5.869-0.164,9.022c0.038,0.078,0.075,0.155,0.114,0.23   c-0.178,0.179-0.36,0.355-0.546,0.525c-0.094-0.178-0.192-0.355-0.295-0.53c-2.498-4.237-4.98-4.133-6.238-3.695   c-2.005,0.7-3.45,3.277-3.092,5.514c0.292,1.83,1.697,2.957,3.755,3.015c1.771,0.06,3.552-0.615,5.174-1.687   c1.451,4.701-0.031,10.345-1.787,14.685c-3.153,0.193-5.795,0.617-7.504,1.302c2.816-8.239-1.852-14.484-2.438-15.222   c-2.96-3.437-4.589-7.817-4.589-12.334c0-10.438,8.492-18.929,18.929-18.929c10.438,0,18.929,8.492,18.929,18.929   c0,4.517-1.63,8.896-4.604,12.352C63.846,46.806,59.173,53.046,62.001,61.306z M55.811,44.331c0.317-2.183,0.872-3.925,1.585-4.973   c0.191-0.283,0.563-0.748,0.935-0.748c0.007,0,0.015,0,0.022,0c1.183,0.062,1.707,1.123,1.694,2.083   C60.025,42.288,58.697,43.93,55.811,44.331z M46.873,43.744c-1.435,1.02-3.003,1.659-4.518,1.628   c-1.275-0.037-2.007-0.591-2.176-1.648c-0.237-1.476,0.743-3.292,2.016-3.736c0.208-0.072,0.419-0.108,0.634-0.108   c1.173,0,2.439,1.068,3.63,3.088C46.608,43.222,46.746,43.48,46.873,43.744z"/><path fill="#000000" d="M50.092,87.273c-0.681,0-1.234,0.552-1.234,1.234v2.13c0,0.681,0.553,1.233,1.234,1.233   c0.682,0,1.235-0.553,1.235-1.233v-2.13C51.327,87.825,50.774,87.273,50.092,87.273z"/><path fill="#000000" d="M50.092,94.821c-0.681,0-1.234,0.553-1.234,1.235v2.709c0,0.682,0.553,1.234,1.234,1.234   c0.682,0,1.235-0.553,1.235-1.234v-2.709C51.327,95.374,50.774,94.821,50.092,94.821z"/></g><text x="0" y="115" fill="#000000" font-size="5px" font-weight="bold" font-family="'Helvetica Neue', Helvetica, Arial-Unicode, Arial, Sans-serif">Created by Sma-rtez</text><text x="0" y="120" fill="#000000" font-size="5px" font-weight="bold" font-family="'Helvetica Neue', Helvetica, Arial-Unicode, Arial, Sans-serif">from the Noun Project</text></svg>